<?xml version="1.0" standalone="no"?>
<!DOCTYPE svg PUBLIC "-//W3C//DTD SVG 20010904//EN"
 "http://www.w3.org/TR/2001/REC-SVG-20010904/DTD/svg10.dtd">
<svg version="1.0" xmlns="http://www.w3.org/2000/svg"
 width="300.000000pt" height="300.000000pt" viewBox="0 0 300.000000 300.000000"
 preserveAspectRatio="xMidYMid meet">
<metadata>
Created by potrace 1.11, written by Peter Selinger 2001-2013
</metadata>
<g transform="translate(0.000000,300.000000) scale(0.100000,-0.100000)"
fill="#000000" stroke="none">
<path d="M0 1500 l0 -1500 1500 0 1500 0 0 510 0 510 -1075 0 c-1068 0 -1075
0 -1075 20 0 20 7 20 1075 20 l1075 0 0 970 0 970 -1500 0 -1500 0 0 -1500z
m1541 225 c51 -18 109 -61 109 -80 0 -8 -9 -19 -20 -25 -17 -9 -29 -6 -67 20
-67 43 -114 54 -176 39 -66 -16 -129 -76 -145 -140 -45 -178 179 -322 312
-200 24 22 56 77 56 96 0 3 -34 5 -75 5 -73 0 -75 1 -75 25 l0 25 110 0 110 0
0 -31 c0 -89 -66 -183 -146 -207 -143 -42 -298 20 -348 140 -32 75 -14 199 36
258 22 26 81 67 113 78 45 16 157 14 206 -3z m1230 -13 c103 -54 153 -161 129
-277 -15 -73 -61 -131 -130 -168 -49 -26 -63 -28 -131 -25 -99 4 -159 39 -206
118 -29 47 -33 63 -33 122 0 112 43 188 132 232 75 37 165 37 239 -2z m-2535
-137 c35 -82 67 -158 72 -168 6 -14 25 22 81 152 l74 171 34 0 c18 0 33 -4 33
-8 0 -5 -45 -112 -99 -238 -73 -170 -103 -229 -116 -229 -13 0 -42 59 -116
233 -54 129 -99 236 -99 238 0 3 16 4 36 2 l37 -3 63 -150z m434 -85 l0 -240
-35 0 -35 0 0 240 0 240 35 0 35 0 0 -240z m361 217 c46 -31 61 -62 56 -120
-5 -60 -36 -95 -100 -111 l-45 -12 74 -98 c41 -55 74 -103 74 -108 0 -4 -17
-8 -37 -8 -37 1 -41 5 -118 110 -44 60 -83 109 -87 110 -5 0 -8 -49 -8 -110
l0 -110 -30 0 -30 0 0 240 0 240 109 0 c96 0 112 -3 142 -23z m799 -217 l0
-240 -35 0 -35 0 0 240 0 240 35 0 35 0 0 -240z m170 25 l0 -215 90 0 c89 0
90 0 90 -25 l0 -25 -120 0 -120 0 0 240 0 240 30 0 30 0 0 -215z m320 -25 l0
-240 -35 0 -35 0 0 240 0 240 35 0 35 0 0 -240z"/>
<path d="M2596 1675 c-109 -39 -163 -172 -110 -276 22 -43 74 -86 120 -99 139
-39 271 110 222 251 -18 54 -48 87 -102 114 -57 28 -75 30 -130 10z"/>
<path d="M840 1600 l0 -82 71 4 c60 3 74 8 90 27 24 29 24 72 1 101 -15 18
-31 23 -90 28 l-72 5 0 -83z"/>
</g>
</svg>
